<svg id="visual" viewBox="0 0 540 960" width="540" height="960" xmlns="http://www.w3.org/2000/svg" xmlns:xlink="http://www.w3.org/1999/xlink" version="1.1"><rect x="0" y="0" width="540" height="960" fill="#264653"></rect><defs><linearGradient id="grad1_0" x1="0%" y1="0%" x2="100%" y2="100%"><stop offset="30%" stop-color="#264653" stop-opacity="1"></stop><stop offset="70%" stop-color="#264653" stop-opacity="1"></stop></linearGradient></defs><defs><linearGradient id="grad2_0" x1="0%" y1="0%" x2="100%" y2="100%"><stop offset="30%" stop-color="#264653" stop-opacity="1"></stop><stop offset="70%" stop-color="#264653" stop-opacity="1"></stop></linearGradient></defs><g transform="translate(540, 0)"><path d="M0 216C-28.8 213.7 -57.6 211.4 -82.7 199.6C-107.7 187.8 -128.9 166.5 -144.2 144.2C-159.6 122 -169.2 98.8 -180.2 74.6C-191.1 50.4 -203.6 25.2 -216 0L0 0Z" fill="#e76f51"></path></g><g transform="translate(0, 960)"><path d="M0 -216C23.6 -199 47.1 -182.1 70.8 -170.9C94.5 -159.8 118.2 -154.5 141.4 -141.4C164.6 -128.4 187.2 -107.5 199.6 -82.7C211.9 -57.8 213.9 -28.9 216 0L0 0Z" fill="#e76f51"></path></g></svg>