<svg id="visual" viewBox="0 0 1920 1080" width="1920" height="1080" xmlns="http://www.w3.org/2000/svg" xmlns:xlink="http://www.w3.org/1999/xlink" version="1.1"><rect x="0" y="0" width="1920" height="1080" fill="#264653"></rect><defs><linearGradient id="grad1_0" x1="43.8%" y1="0%" x2="100%" y2="100%"><stop offset="14.444444444444446%" stop-color="#264653" stop-opacity="1"></stop><stop offset="85.55555555555554%" stop-color="#264653" stop-opacity="1"></stop></linearGradient></defs><defs><linearGradient id="grad2_0" x1="0%" y1="0%" x2="56.3%" y2="100%"><stop offset="14.444444444444446%" stop-color="#264653" stop-opacity="1"></stop><stop offset="85.55555555555554%" stop-color="#264653" stop-opacity="1"></stop></linearGradient></defs><g transform="translate(1920, 0)"><path d="M0 432C-60.5 430.6 -120.9 429.2 -165.3 399.1C-209.7 369 -238.1 310.3 -263.8 263.8C-289.4 217.2 -312.4 182.8 -340 140.8C-367.6 98.9 -399.8 49.4 -432 0L0 0Z" fill="#e76f51"></path></g><g transform="translate(0, 1080)"><path d="M0 -432C56.4 -426.4 112.8 -420.7 165.3 -399.1C217.8 -377.5 266.4 -339.9 294.2 -294.2C321.9 -248.4 328.8 -194.6 348.3 -144.3C367.8 -93.9 399.9 -46.9 432 0L0 0Z" fill="#e76f51"></path></g></svg>